<?xml version="1.0" encoding="UTF-8" standalone="no"?>
<!-- Created with Inkscape (http://www.inkscape.org/) -->

<svg
   xmlns:dc="http://purl.org/dc/elements/1.1/"
   xmlns:cc="http://creativecommons.org/ns#"
   xmlns:rdf="http://www.w3.org/1999/02/22-rdf-syntax-ns#"
   xmlns:svg="http://www.w3.org/2000/svg"
   xmlns="http://www.w3.org/2000/svg"
   xmlns:xlink="http://www.w3.org/1999/xlink"
   xmlns:sodipodi="http://sodipodi.sourceforge.net/DTD/sodipodi-0.dtd"
   xmlns:inkscape="http://www.inkscape.org/namespaces/inkscape"
   width="794"
   height="250"
   viewBox="0 0 794 250.00001"
   id="svg2"
   version="1.1"
   inkscape:version="0.91 r13725"
   sodipodi:docname="gown.js_logo_draft_8_pixi_colors.svg"
   inkscape:export-filename="/home/sphinxc0re/Bilder/gown.js/gown.js_logo_draft_8_pixi_colors.png"
   inkscape:export-xdpi="150"
   inkscape:export-ydpi="150">
  <defs
     id="defs4">
    <linearGradient
       inkscape:collect="always"
       id="linearGradient4227">
      <stop
         style="stop-color:#d90057;stop-opacity:1"
         offset="0"
         id="stop4229" />
      <stop
         style="stop-color:#101228;stop-opacity:1"
         offset="1"
         id="stop4231" />
    </linearGradient>
    <linearGradient
       inkscape:collect="always"
       xlink:href="#linearGradient4227"
       id="linearGradient4233"
       x1="119.84377"
       y1="831.87946"
       x2="61.464504"
       y2="1049.7539"
       gradientUnits="userSpaceOnUse" />
  </defs>
  <sodipodi:namedview
     id="base"
     pagecolor="#ffffff"
     bordercolor="#666666"
     borderopacity="1.0"
     inkscape:pageopacity="0.0"
     inkscape:pageshadow="2"
     inkscape:zoom="1.4"
     inkscape:cx="402.73705"
     inkscape:cy="91.98305"
     inkscape:document-units="px"
     inkscape:current-layer="layer1"
     showgrid="false"
     units="px"
     inkscape:window-width="1440"
     inkscape:window-height="841"
     inkscape:window-x="0"
     inkscape:window-y="27"
     inkscape:window-maximized="1" />
  <metadata
     id="metadata7">
    <rdf:RDF>
      <cc:Work
         rdf:about="">
        <dc:format>image/svg+xml</dc:format>
        <dc:type
           rdf:resource="http://purl.org/dc/dcmitype/StillImage" />
        <dc:title />
      </cc:Work>
    </rdf:RDF>
  </metadata>
  <g
     inkscape:label="Layer 1"
     inkscape:groupmode="layer"
     id="layer1"
     transform="translate(0,-802.36216)">
    <path
       style="fill:url(#linearGradient4233);fill-opacity:1"
       d="m 84.924259,830.23404 77.050041,0 c 0,0 -29.23811,18.96306 -29.23811,75.39993 0,9.64491 -1.02705,36.45446 13.84119,55.95016 20.4729,26.84469 53.36519,38.06852 91.08538,15.59438 78.63921,-46.85417 402.88297,-20.40403 402.88297,-20.40403 0,0 -49.76242,47.55702 -70.17703,73.73992 -20.41461,26.183 -79.98671,-19.4732 -126.39914,8.6771 -46.41243,28.1504 -70.408,-13.9006 -102.91915,4.3045 -32.51114,18.2051 -59.07158,-17.7104 -86.5542,3.0907 -27.48262,20.8011 -46.27785,-25.4479 -75.0551,-5.4595 -28.77726,19.9885 -57.81598,-15.9147 -87.921128,3.1052 -30.105148,19.0199 -90.961939,-6.7752 -90.961939,-6.7752 0,0 48.73388,-72.68855 65.657015,-124.1288 16.923135,-51.44024 18.709201,-83.09436 18.709201,-83.09436 z"
       id="rect3345"
       inkscape:connector-curvature="0"
       sodipodi:nodetypes="ccsssczzzzzzczc" />
    <g
       style="font-style:normal;font-weight:normal;font-size:40px;line-height:125%;font-family:sans-serif;letter-spacing:0px;word-spacing:0px;fill:#101228;fill-opacity:1;stroke:none;stroke-width:1px;stroke-linecap:butt;stroke-linejoin:miter;stroke-opacity:1"
       id="text3348">
      <path
         inkscape:connector-curvature="0"
         d="m 199.65288,846.5733 q -14.58985,0 -24.87305,10.28321 -10.2832,10.2832 -10.2832,24.87304 0,14.58985 10.2832,24.87305 10.2832,10.2832 24.87305,10.2832 14.58984,0 24.87304,-10.2832 10.28321,-10.2832 10.28321,-24.87305 0,-14.58984 -10.28321,-24.87304 -10.2832,-10.28321 -24.87304,-10.28321 z m 35.15625,69.60938 q -0.17578,0.17578 -0.35156,0.35156 -14.41407,14.41406 -34.80469,14.41406 -20.39063,0 -34.80469,-14.41406 -14.41406,-14.41406 -14.41406,-34.80469 0,-20.39062 14.41406,-34.80468 14.41406,-14.41407 34.80469,-14.41407 20.39062,0 34.80469,14.41407 14.41406,14.41406 14.41406,34.80468 l 0,49.21875 q 0,15.38086 -11.07422,26.71875 -15.46875,15.46875 -37.35352,15.46875 -21.88476,0 -37.26562,-15.46875 -5.71289,-5.625 -9.31641,-12.21679 -1.05469,-1.58203 -1.05469,-3.69141 0,-2.90039 2.02149,-5.00977 2.10937,-2.02148 5.00976,-2.02148 2.9004,0 5.00977,2.02148 0.87891,0.9668 1.49414,2.10938 2.63672,4.74609 6.76758,8.87695 11.33789,11.33789 27.33398,11.33789 15.9961,0 27.33399,-11.33789 7.03125,-8.4375 7.03125,-16.78711 l 0,-14.76562 z"
         style="font-style:normal;font-variant:normal;font-weight:normal;font-stretch:normal;font-size:180px;font-family:Comfortaa;-inkscape-font-specification:Comfortaa;fill:#101228;fill-opacity:1"
         id="path3345" />
      <path
         inkscape:connector-curvature="0"
         d="m 361.37163,881.72955 q 0,20.39063 -14.41406,34.80469 -14.41407,14.41406 -34.80469,14.41406 -20.39063,0 -34.80469,-14.41406 -14.41406,-14.41406 -14.41406,-34.80469 0,-20.39062 14.41406,-34.80468 14.41406,-14.41407 34.80469,-14.41407 20.39062,0 34.80469,14.41407 14.41406,14.41406 14.41406,34.80468 z M 312.15288,846.5733 q -14.58985,0 -24.87305,10.28321 -10.2832,10.2832 -10.2832,24.87304 0,14.58985 10.2832,24.87305 10.2832,10.2832 24.87305,10.2832 14.58984,0 24.87304,-10.2832 10.28321,-10.2832 10.28321,-24.87305 0,-14.58984 -10.28321,-24.87304 -10.2832,-10.28321 -24.87304,-10.28321 z"
         style="font-style:normal;font-variant:normal;font-weight:normal;font-stretch:normal;font-size:180px;font-family:Comfortaa;-inkscape-font-specification:Comfortaa;fill:#101228;fill-opacity:1"
         id="path3347" />
      <path
         inkscape:connector-curvature="0"
         d="m 433.7935,834.53229 q 2.02149,-2.02149 4.92188,-2.02149 2.90039,0 5.00976,2.02149 1.31836,1.40625 1.84571,3.25195 l 21.26953,63.89649 21.70898,-65.12696 q 0.52735,-1.05469 1.49414,-2.02148 2.02149,-2.02149 4.92188,-2.02149 2.90039,0 4.92187,2.10938 2.10938,2.02148 2.10938,4.92187 0,1.40625 -0.52735,2.72461 l -28.03711,84.19922 q -0.52734,1.31836 -1.58203,2.54883 -2.10937,1.93359 -5.00976,1.93359 -2.90039,0 -4.92188,-1.93359 -1.14258,-1.23047 -1.66992,-2.54883 l -21.5332,-64.6875 -21.53321,64.6875 q -0.52734,1.31836 -1.58203,2.54883 -2.10937,1.93359 -5.00976,1.93359 -2.90039,0 -4.92188,-1.93359 -1.14258,-1.23047 -1.66992,-2.54883 l -28.03711,-84.19922 q -0.52734,-1.31836 -0.52734,-2.72461 0,-2.90039 2.02148,-4.92187 2.10938,-2.10938 5.00977,-2.10938 2.90039,0 5.00976,2.02149 0.87891,0.96679 1.40625,2.02148 l 21.70899,65.12696 21.26953,-63.89649 q 0.61523,-1.8457 1.93359,-3.25195 z"
         style="font-style:normal;font-variant:normal;font-weight:normal;font-stretch:normal;font-size:180px;font-family:Comfortaa;-inkscape-font-specification:Comfortaa;fill:#101228;fill-opacity:1"
         id="path3349" />
      <path
         inkscape:connector-curvature="0"
         d="m 516.05913,839.54205 q 0,-2.90039 2.02148,-4.92187 2.10938,-2.10938 5.00977,-2.10938 2.90039,0 4.92187,2.10938 2.10938,2.02148 2.10938,4.92187 l 0,5.71289 q 13.18359,-12.74414 31.64062,-12.74414 18.89649,0 32.25586,13.44727 13.44727,13.35937 13.44727,32.25586 l 0,45.70312 q 0,2.90039 -2.10938,5.00977 -2.02148,2.02148 -4.92187,2.02148 -2.90039,0 -5.00977,-2.02148 -2.02148,-2.10938 -2.02148,-5.00977 l 0,-45.70312 q 0,-13.0957 -9.31641,-22.32422 -9.22851,-9.31641 -22.32422,-9.31641 -13.0957,0 -22.41211,9.31641 -9.22851,9.22852 -9.22851,22.32422 l 0,45.70312 q 0,2.90039 -2.10938,5.00977 -2.02148,2.02148 -4.92187,2.02148 -2.90039,0 -5.00977,-2.02148 -2.02148,-2.10938 -2.02148,-5.00977 l 0,-84.375 z"
         style="font-style:normal;font-variant:normal;font-weight:normal;font-stretch:normal;font-size:180px;font-family:Comfortaa;-inkscape-font-specification:Comfortaa;fill:#101228;fill-opacity:1"
         id="path3351" />
      <path
         inkscape:connector-curvature="0"
         d="m 642.62163,920.40143 q 0,4.39453 -3.07617,7.4707 -3.07618,3.07617 -7.47071,3.07617 -4.39453,0 -7.4707,-3.07617 -3.07617,-3.07617 -3.07617,-7.4707 0,-4.39453 3.07617,-7.4707 3.07617,-3.07618 7.4707,-3.07618 4.39453,0 7.47071,3.07618 3.07617,3.07617 3.07617,7.4707 z"
         style="font-style:normal;font-variant:normal;font-weight:normal;font-stretch:normal;font-size:180px;font-family:Comfortaa;-inkscape-font-specification:Comfortaa;fill:#101228;fill-opacity:1"
         id="path3353" />
      <path
         inkscape:connector-curvature="0"
         d="m 700.62944,811.41705 q 0,3.60352 -2.63672,6.24024 -2.54883,2.54883 -6.15234,2.54883 -3.60352,0 -6.24024,-2.54883 -2.54882,-2.63672 -2.54882,-6.24024 0,-3.60351 2.54882,-6.15234 2.63672,-2.63672 6.24024,-2.63672 3.60351,0 6.15234,2.63672 2.63672,2.54883 2.63672,6.15234 z m -15.82031,119.53125 0,-91.40625 q 0,-2.90039 2.02148,-4.92187 2.10938,-2.10938 5.00977,-2.10938 2.90039,0 4.92187,2.10938 2.10938,2.02148 2.10938,4.92187 l 0,91.40625 q 0,17.49024 -12.39258,29.79493 -12.30469,12.39257 -29.79492,12.39257 -2.90039,0 -5.00977,-2.10937 -2.02148,-2.02149 -2.02148,-4.92188 0,-2.90039 2.02148,-5.00976 2.10938,-2.02149 5.00977,-2.02149 11.68945,0 19.86328,-8.26172 8.26172,-8.17382 8.26172,-19.86328 z"
         style="font-style:normal;font-variant:normal;font-weight:normal;font-stretch:normal;font-size:180px;font-family:Comfortaa;-inkscape-font-specification:Comfortaa;fill:#101228;fill-opacity:1"
         id="path3355" />
      <path
         inkscape:connector-curvature="0"
         d="m 731.74272,881.72955 q -7.99805,-2.98828 -11.16211,-6.24023 -6.24023,-6.15234 -6.24023,-14.85352 0,-8.70117 6.5039,-15.20507 12.65625,-12.91993 33.04688,-12.91993 22.06055,0 37.79297,17.66602 1.40625,1.66992 1.31836,4.13086 0,2.90039 -2.10938,5.00976 -2.02148,2.02149 -4.92187,2.02149 -2.90039,0 -4.65821,-1.8457 -1.75781,-1.84571 -2.54882,-2.63672 -10.28321,-10.28321 -24.87305,-10.28321 -14.58984,0 -23.29102,9.14063 -2.10937,2.54883 -2.10937,6.06445 0.26367,4.13086 4.30664,5.625 l 43.24219,14.32617 q 7.99804,2.98828 11.16211,6.24024 6.24023,6.15234 6.24023,14.85351 0,8.70118 -6.50391,15.20508 -12.65625,12.91992 -33.04687,12.91992 -22.14844,0 -37.79297,-17.66601 -1.31836,-1.84571 -1.31836,-4.13086 0,-2.90039 2.02149,-4.92188 2.10937,-2.10937 5.00976,-2.10937 2.90039,0 4.6582,1.8457 1.75782,1.8457 2.54883,2.63672 10.28321,10.2832 24.87305,10.2832 14.58984,0 23.29101,-9.14062 2.10938,-2.54883 2.10938,-6.06445 -0.26367,-4.13086 -4.30664,-5.625 l -43.24219,-14.32618 z"
         style="font-style:normal;font-variant:normal;font-weight:normal;font-stretch:normal;font-size:180px;font-family:Comfortaa;-inkscape-font-specification:Comfortaa;fill:#101228;fill-opacity:1"
         id="path3357" />
    </g>
  </g>
</svg>
